<svg width="213" height="191" viewBox="0 0 213 191" fill="none" xmlns="http://www.w3.org/2000/svg">
<path fill-rule="evenodd" clip-rule="evenodd" d="M107.358 181C105.861 181.011 104.389 180.628 103.089 179.89C91.9469 173.445 9.43515 121.709 6.32033 120.13C3.9482 119.023 2.32824 116.756 2.05112 114.154V41.5884C1.98936 38.879 3.32745 36.3295 5.59349 34.8441L6.19207 34.5021C14.1731 29.5503 40.8953 13.2447 45.1201 10.8963C46.0908 10.3215 47.1946 10.0127 48.322 10C49.3799 10.0127 50.4187 10.2755 51.3529 10.768C51.3529 10.768 88.745 35.1418 94.4663 37.3192C98.479 39.1624 102.856 40.0824 107.272 40.008C112.276 40.1125 117.22 38.9059 121.614 36.5084C127.206 33.563 162.934 10.8963 163.318 10.8963C164.219 10.3531 165.254 10.0713 166.307 10.0855C167.436 10.0918 168.541 10.4006 169.509 10.9818C174.373 13.6722 207.499 33.9462 208.907 34.8441C211.236 36.2487 212.649 38.7824 212.62 41.5029V114.068C212.359 116.677 210.734 118.95 208.353 120.045C205.236 121.752 122.979 173.487 111.626 179.804C110.333 180.572 108.861 180.984 107.358 181V181Z" fill="#FFCD4D"/>
<path fill-rule="evenodd" clip-rule="evenodd" d="M106.93 181H107.358C108.853 181.011 110.324 180.628 111.625 179.89C122.766 173.445 205.236 121.709 208.353 120.13C210.734 119.038 212.359 116.762 212.62 114.154V41.5884C212.635 40.3596 212.357 39.145 211.809 38.046L106.93 95.6282V181V181Z" fill="#F0AD00"/>
<path fill-rule="evenodd" clip-rule="evenodd" d="M106.566 179.97H106.143C104.664 179.982 103.207 179.602 101.92 178.873C90.897 172.495 9.30685 121.312 6.22371 119.749C3.86741 118.667 2.26012 116.417 2.00042 113.836V42.0429C1.98775 40.8283 2.26328 39.6264 2.80327 38.5385L106.566 95.5078V179.97Z" fill="#FFB903"/>
</svg>
