<?xml version="1.0" encoding="UTF-8"?>
<svg width="299px" height="250px" clip-rule="evenodd" fill-rule="evenodd" image-rendering="optimizeQuality" shape-rendering="geometricPrecision" text-rendering="geometricPrecision" version="1.1" viewBox="410 0 540 1090" xml:space="preserve" xmlns="http://www.w3.org/2000/svg"><defs><mask id="e"><linearGradient id="d" x1="372.39" x2="1721.6" y1="973.97" y2="226.93" gradientUnits="userSpaceOnUse"><stop stop-color="#fff" offset="0"/><stop stop-color="#fff" stop-opacity="0" offset="1"/></linearGradient><rect x="662.18" y="176.66" width="668.33" height="903.66" fill="url(#d)"/></mask><linearGradient id="c" x1=".38" x2="1322.7" y1="545.08" y2="534.84" gradientUnits="userSpaceOnUse"><stop stop-color="#FFB800" offset="0"/><stop stop-color="#F28000" offset=".32941"/><stop stop-color="#F73B72" offset=".56078"/><stop stop-color="#FB1CBD" offset=".78039"/><stop stop-color="#FD08ED" offset=".92941"/><stop stop-color="#f0f" offset="1"/></linearGradient><linearGradient id="b" x1="544.14" x2="-187.56" y1="369.82" y2="639.15" gradientUnits="userSpaceOnUse"><stop stop-color="#ED5B00" offset="0"/><stop stop-color="#F37D00" offset=".086274"/>
<stop stop-color="#EF6200" offset=".14902"/><stop stop-color="#FB8A00" offset=".50196"/><stop stop-color="#F9A000" offset="1"/></linearGradient><linearGradient id="a" x1="372.39" x2="1721.6" y1="973.97" y2="226.93" gradientUnits="userSpaceOnUse">
<stop stop-color="#ED0A3F" offset="0"/><stop stop-color="#ED0A3F" offset="1"/></linearGradient></defs><path class="" d="m665.33 1079.9c-9.45 0.07-18.75-2.35-26.96-7.01-70.36-40.7-591.42-367.41-611.09-377.38-14.98-6.99-25.21-21.31-26.96-37.74v-458.25c-0.39-17.11 8.06-33.21 22.37-42.59l3.78-2.16c50.4-31.27 219.15-134.24 245.83-149.07 6.13-3.63 13.1-5.58 20.22-5.66 6.68 0.08 13.24 1.74 19.14 4.85 0 0 236.13 153.92 272.26 167.67 25.34 11.64 52.98 17.45 80.87 16.98 31.6 0.66 62.82-6.96 90.57-22.1 35.31-18.6 260.93-161.74 263.36-161.74 5.69-3.43 12.22-5.21 18.87-5.12 7.13 0.04 14.11 1.99 20.22 5.66 30.72 16.99 239.91 145.02 248.8 150.69 14.71 8.87 23.63 24.87 23.45 42.05v458.25c-1.65 16.47-11.91 30.83-26.95 37.74-19.68 10.78-539.13 337.49-610.83 377.38-8.16 4.85-17.46 7.45-26.95 7.55z" fill="#ffcd4d"/><path class="" d="m662.63 1079.9h2.7c9.44 0.07 18.73-2.35 26.95-7.01 70.35-40.7 591.15-367.41 610.83-377.38 15.04-6.9 25.3-21.27 26.95-37.74v-458.25c0.09-7.76-1.66-15.43-5.12-22.37l-662.31 363.63v539.12z" fill="#f0ad00" mask="url(#e)"/><path class="" d="m660.33 1073.4h-2.67c-9.34 0.07-18.54-2.33-26.67-6.93-69.61-40.28-584.85-363.5-604.32-373.37-14.88-6.83-25.03-21.04-26.67-37.34v-453.37c-0.08-7.67 1.66-15.26 5.07-22.13l655.26 359.76v533.38z" fill="#FFB903"/></svg>
