<svg xmlns="http://www.w3.org/2000/svg" xml:space="preserve" width="220px" height="250px" version="1.1" style="shape-rendering:geometricPrecision; text-rendering:geometricPrecision; image-rendering:optimizeQuality; fill-rule:evenodd; clip-rule:evenodd" viewBox="95 -10 720 1060" xmlns:xlink="http://www.w3.org/1999/xlink" xmlns:xodm="http://www.corel.com/coreldraw/odm/2003"><g id="Layer_x0020_1"><g id="_1702393006976"><path class="" fill="#FFB903" d="M878.12 289.06l-219.37 0c-24.65,-219.79 -130.13,-292.91 -214.24,-288.9 -94.6,4.72 -190.21,105.37 -194.02,288.9l-219.68 0c-17.04,0 -30.81,13.76 -30.81,30.81l40.77 619.1c0,17.05 45.71,95.2 117.6,94.69l595.68 0c104.35,-16.23 117.5,-103.63 117.5,-120.67l37.39 -593.12c0,-17.05 -13.77,-30.81 -30.82,-30.81zm-431.05 -237.66l0 0c61.11,-2.87 138.44,57.72 159.91,237.66l-305.13 0c3.49,-149.85 76.51,-234.17 145.22,-237.66zm62.04 851.21l0 0c-71.18,13.66 -162.69,-10.06 -212.5,-63.57 -22.49,-24.14 13.76,-60.6 36.36,-36.26 33.48,36.05 93.15,52.9 141.83,51.77 62.04,-1.34 117.29,-57.82 82.06,-120.88 -48.78,-87.3 -169.05,-62.86 -230.88,-131.46 -50.01,-55.36 -26.29,-142.45 32.46,-181.07 61.21,-40.26 166.89,-38.72 217.22,19 21.67,24.75 -14.59,61.21 -36.36,36.25 -40.67,-46.63 -136.7,-40.26 -173.36,7.7 -52.17,68.51 25.88,105.38 80.41,121.92 74.98,22.69 158.17,64.18 171.83,150.15 10.89,69.22 -42.73,133.61 -109.07,146.45z"/></g></g></svg>