<svg xmlns="http://www.w3.org/2000/svg" xml:space="preserve" width="264px" height="250px" version="1.1" style="shape-rendering:geometricPrecision; text-rendering:geometricPrecision; image-rendering:optimizeQuality; fill-rule:evenodd; clip-rule:evenodd" viewBox="340 57 570 666" xmlns:xlink="http://www.w3.org/1999/xlink" xmlns:xodm="http://www.corel.com/coreldraw/odm/2003"><g id="Layer_x0020_1"><g id="_2151769347552"><path class="" fill="#FFB903" d="M630.43 64.62c-175.2,0 -317.23,142.02 -317.23,317.23 0,59.93 16.63,115.98 45.52,163.79l-57.25 170.19 175.63 -56.23c45.45,25.13 97.71,39.46 153.33,39.46 175.2,0 317.23,-142.02 317.23,-317.21 0,-175.21 -142.03,-317.23 -317.23,-317.23zm0 583.92l0 0c-54.17,0 -104.61,-16.25 -146.73,-44.11l-102.49 32.82 33.31 -99.04c-31.93,-43.97 -50.79,-97.99 -50.79,-156.37 0,-147.06 119.64,-266.7 266.7,-266.7 147.06,0 266.71,119.64 266.71,266.7 0,147.06 -119.65,266.7 -266.71,266.7z"/><path class="" fill="#000" d="M630.43 115.14c-147.06,0 -266.7,119.64 -266.7,266.7 0,58.38 18.86,112.4 50.79,156.37l-33.31 99.04 102.49 -32.82c42.12,27.86 92.56,44.11 146.73,44.11 147.06,0 266.71,-119.64 266.71,-266.7 0,-147.06 -119.65,-266.7 -266.71,-266.7z"/><path class="" fill="#FFB903" d="M556.03 250.63c-5.14,-12.38 -9.08,-12.8 -17.01,-13.18 -2.72,-0.13 -5.68,-0.26 -8.91,-0.26 -10.22,0 -20.83,3.02 -27.21,9.55 -7.78,7.96 -27.22,26.59 -27.22,64.85 0,38.26 27.86,75.23 31.75,80.42 3.89,5.18 54.34,84.85 132.84,117.37 61.27,25.38 79.46,23.12 93.44,20.07 20.34,-4.45 45.88,-19.42 52.36,-37.57 6.48,-18.17 6.48,-33.73 4.54,-36.96 -1.95,-3.25 -7.13,-5.19 -14.91,-9.09 -7.78,-3.89 -46.01,-22.7 -53.14,-25.29 -7.13,-2.59 -13.72,-1.8 -19.2,5.78 -7.57,10.48 -14.85,21.24 -20.87,27.62 -4.73,5.01 -12.34,5.71 -18.89,2.93 -8.61,-3.67 -32.83,-12.11 -62.54,-38.6 -23.11,-20.6 -38.72,-46.06 -43.26,-53.85 -4.53,-7.77 -0.4,-12.42 3.1,-16.65 3.99,-4.83 7.66,-8.3 11.55,-12.83 3.89,-4.54 6.06,-6.96 8.66,-12.16 2.59,-5.18 0.84,-10.53 -1.1,-14.43 -1.95,-3.89 -17.52,-42.14 -23.98,-57.72z"/></g></g></svg>
